<?xml version="1.0" encoding="utf-8"?>
<!-- Generator: Adobe Illustrator 25.0.1, SVG Export Plug-In . SVG Version: 6.00 Build 0)  -->
<svg version="1.1" id="Ebene_1" xmlns="http://www.w3.org/2000/svg" xmlns:xlink="http://www.w3.org/1999/xlink" x="0px" y="0px"
	 viewBox="0 0 595.3 99.2" style="enable-background:new 0 0 595.3 99.2;" xml:space="preserve">
<style type="text/css">
	.st0{fill:#FFFFFF;}
	.st1{fill:none;stroke:#FFFFFF;stroke-width:3.83;stroke-miterlimit:22.93;}
	.st2{fill:none;stroke:#FFFFFF;stroke-width:2.54;stroke-miterlimit:22.93;}
	.st3{fill-rule:evenodd;clip-rule:evenodd;fill:#FFFFFF;}
</style>
<path class="st0" d="M133.4,55.7v-7.8h20.1v18.4c-2.5,2.2-5.4,3.9-8.5,5c-3.6,1.4-7.4,2.2-11.3,2.2c-4.4,0.1-8.8-0.9-12.6-3
	c-3.5-2-6.4-5-8.1-8.7c-1.8-3.9-2.8-8.1-2.7-12.3c-0.1-4.5,0.9-8.9,3-12.9c2-3.7,5.1-6.7,8.9-8.6c3.4-1.6,7.2-2.4,11.1-2.3
	c5.7,0,10.2,1.2,13.4,3.6c3.2,2.5,5.5,6,6.2,10l-9.3,1.8c-0.6-2.2-1.8-4.1-3.6-5.4c-2-1.4-4.3-2.1-6.7-2c-3.6-0.2-7.2,1.2-9.7,3.9
	c-2.4,2.6-3.6,6.5-3.6,11.5c0,5.5,1.2,9.6,3.7,12.4c2.4,2.7,5.9,4.3,9.6,4.1c2,0,4-0.4,5.9-1.2c1.8-0.7,3.5-1.6,5-2.8v-5.9H133.4z"
	/>
<path class="st0" d="M167.4,49.8c-0.1-4.1,0.6-8.1,2.1-11.9c1-2.4,2.5-4.5,4.3-6.4c1.7-1.8,3.7-3.2,6-4.2c3.2-1.3,6.6-1.9,10-1.8
	c6.8,0,12.3,2.1,16.4,6.4c4.1,4.2,6.1,10.1,6.1,17.7c0,7.5-2,13.3-6.1,17.5s-9.5,6.3-16.3,6.3c-6.9,0-12.3-2.1-16.4-6.3
	S167.4,57.2,167.4,49.8L167.4,49.8z M177,49.5c0,5.2,1.2,9.2,3.6,11.9c4.7,5.1,12.6,5.4,17.7,0.7c0.2-0.2,0.5-0.5,0.7-0.7
	c2.4-2.7,3.6-6.7,3.6-12.1s-1.2-9.3-3.5-11.9c-2.3-2.6-5.7-4.1-9.3-3.9c-3.5-0.1-7,1.3-9.3,4S177,44.2,177,49.5L177,49.5z"/>
<polygon class="st0" points="238.5,72.7 222,26.4 232.1,26.4 243.9,60.6 255.1,26.4 265,26.4 248.6,72.7 "/>
<path class="st0" d="M294.1,73.5V25.6h20.4c5.1,0,8.8,0.4,11.2,1.3c2.3,0.9,4.3,2.5,5.6,4.6c1.4,2.3,2.1,4.9,2.1,7.5
	c0.1,3.3-1,6.4-3.1,8.9c-2.1,2.3-5.3,3.8-9.5,4.4c1.9,1.1,3.6,2.4,5.1,4c2.1,2.4,3.9,5,5.5,7.8l5.8,9.3h-11.6L318.7,63
	c-1.5-2.4-3.3-4.8-5.1-7c-0.8-0.9-1.8-1.6-2.9-2c-1.6-0.4-3.2-0.6-4.9-0.5h-2v20H294.1z M303.8,45.9h7.2c4.6,0,7.5-0.2,8.7-0.6
	c1.1-0.3,2.1-1,2.7-2c0.7-1.1,1-2.3,1-3.6c0.1-1.4-0.4-2.8-1.3-3.9c-0.9-1-2.2-1.7-3.6-1.9c-0.8-0.1-3.2-0.2-7.1-0.2h-7.5
	L303.8,45.9L303.8,45.9z"/>
<path class="st0" d="M394.7,73.5h-10.4l-4.1-10.9H361l-4,10.9h-10.2l18.6-47.9h10.3L394.7,73.5z M377,54.5l-6.7-17.7l-6.5,17.7H377z
	"/>
<path class="st0" d="M409.1,25.6h17.6c3.1-0.1,6.1,0.2,9.1,0.9c2.8,0.8,5.2,2.3,7.2,4.4c2.1,2.2,3.6,4.9,4.6,7.8
	c1.1,3.7,1.7,7.5,1.6,11.3c0.1,3.5-0.4,6.9-1.5,10.2c-1,3.2-2.8,6.1-5.1,8.5c-1.9,1.8-4.3,3.1-6.8,3.8c-2.8,0.8-5.7,1.1-8.5,1h-18.2
	L409.1,25.6L409.1,25.6z M418.8,33.7v31.7h7.2c2,0.1,3.9-0.1,5.8-0.4c1.4-0.3,2.8-1,3.9-2c1.2-1.3,2.1-2.9,2.5-4.6
	c0.7-2.9,1.1-5.8,1-8.8c0.1-2.9-0.2-5.7-1-8.5c-0.5-1.7-1.4-3.3-2.7-4.6c-1.3-1.2-2.8-1.9-4.5-2.3c-2.6-0.4-5.3-0.5-7.9-0.5
	C423.1,33.7,418.8,33.7,418.8,33.7z"/>
<path class="st0" d="M509.7,73.5h-10.4l-4.1-10.9H476l-4,10.9h-10.2l18.6-47.9h10.3C490.5,25.6,509.7,73.5,509.7,73.5z M492,54.5
	l-6.7-17.7l-6.5,17.7H492z"/>
<path class="st0" d="M524,73.5V25.6h20.4c5.1,0,8.8,0.4,11.2,1.3c2.3,0.9,4.3,2.5,5.6,4.6c1.4,2.3,2.1,4.9,2.1,7.5
	c0.1,3.3-1,6.5-3.2,8.9c-2.1,2.3-5.3,3.8-9.5,4.4c1.9,1.1,3.6,2.4,5.2,4c2,2.4,3.9,5,5.5,7.8l5.8,9.3h-11.6L548.6,63
	c-1.6-2.4-3.3-4.8-5.1-7c-0.8-0.9-1.8-1.6-2.9-2c-1.6-0.4-3.2-0.6-4.9-0.5h-2v20H524z M533.7,45.9h7.2c4.7,0,7.6-0.2,8.7-0.6
	c1.1-0.3,2.1-1,2.7-2c0.7-1.1,1-2.3,1-3.6c0.1-1.4-0.4-2.8-1.3-3.9c-0.9-1-2.2-1.7-3.6-1.9c-0.8-0.1-3.2-0.2-7.1-0.2h-7.6
	L533.7,45.9L533.7,45.9z"/>
<polygon class="st1" points="280.9,10 580.3,10 580.3,89.1 280.9,89.1 "/>
<path class="st2" d="M53.7,9.6c22.2,0,40.3,18,40.3,40.3c0,22.2-18,40.3-40.2,40.3S13.5,72.2,13.5,50l0,0
	C13.4,27.6,31.4,9.6,53.7,9.6L53.7,9.6z"/>
<polygon class="st3" points="21.2,74.5 50.8,49.8 52.5,52.8 24.1,77.1 "/>
<path class="st3" d="M54.1,44.8c2.8,0.2,4.9,2.7,4.7,5.5s-2.7,4.9-5.5,4.7s-4.9-2.7-4.7-5.5C48.8,46.6,51.3,44.5,54.1,44.8z"/>
<path class="st3" d="M53.4,72.1C52.7,72,52,72,51.3,71.9c-4.1-0.4-8-2-11.3-4.6c-1-0.8-1.9-1.6-2.8-2.5l-0.3-0.3l1.5-1.2
	c0.2,0.3,0.4,0.5,0.7,0.7c1.8,1.9,4,3.4,6.5,4.5c2.2,0.9,4.6,1.5,7,1.6c3.1,0.2,6.3-0.4,9.2-1.6c5.4-2.2,9.6-6.8,11.3-12.4
	C76.5,46,71.4,35,61.6,30.9c-7.2-3-15.5-1.6-21.3,3.5c-2.5,2-4.7,4.5-6.2,7.4c-1.2,2.3-2,4.8-2.3,7.4c-0.1,0.3-0.2,0.7-0.3,1
	c0-0.3,0-0.5,0-0.7c0-0.5,0.1-1,0.1-1.5c1.1-12.2,11.8-21.3,24.1-20.3c5.3,0.5,10.2,2.8,13.9,6.5c3,3,5,6.7,5.9,10.8
	c0.2,0.7,0.3,1.4,0.4,2.1c0,1,0.1,2,0.2,3c0,0.3-0.1,0.7-0.1,1c-0.2,2.9-0.9,5.8-2.2,8.5C72,63,69.5,65.9,66.4,68
	c-2.3,1.6-4.8,2.8-7.5,3.4c-0.8,0.2-1.6,0.3-2.5,0.5L53.4,72.1L53.4,72.1z"/>
<path class="st3" d="M53.5,62.3c-0.4,0-0.8,0-1.2-0.1C50,62,47.8,61.1,46,59.7c-0.5-0.4-1-0.9-1.5-1.4l-0.2-0.2l0.8-0.7
	c0.1,0.1,0.2,0.3,0.4,0.4c1,1.1,2.3,1.9,3.6,2.5c2.9,1.2,6.2,1.2,9.1,0c3.1-1.3,5.4-3.8,6.4-7c1.9-5.7-0.9-11.8-6.5-14.1
	c-4-1.7-8.7-0.9-12,1.9c-1.4,1.1-2.6,2.5-3.5,4.1c-0.7,1.3-1.1,2.7-1.3,4.1c0,0.2-0.1,0.4-0.2,0.6c0-0.1,0-0.3,0-0.4s0-0.6,0.1-0.9
	c0.6-6.9,6.6-11.9,13.5-11.4c3,0.3,5.7,1.6,7.8,3.7c1.7,1.7,2.8,3.8,3.3,6.1c0.1,0.4,0.2,0.8,0.2,1.2l0.1,1.7c0,0.2,0,0.4,0,0.5
	c-0.1,1.7-0.5,3.3-1.2,4.8c-0.9,1.9-2.3,3.5-4.1,4.7c-1.3,0.9-2.7,1.6-4.2,2c-0.5,0.1-0.9,0.2-1.4,0.3L53.5,62.3L53.5,62.3z"/>
<path class="st3" d="M30.1,27c1.8,0,3.2,1.5,3.2,3.3s-1.5,3.2-3.3,3.2s-3.2-1.5-3.2-3.2C26.8,28.5,28.3,27,30.1,27L30.1,27z"/>
<path class="st3" d="M53.9,75.4c2.6,0,4.6,2.1,4.6,4.6c0,2.6-2.1,4.6-4.6,4.6s-4.6-2.1-4.6-4.6l0,0C49.3,77.5,51.3,75.4,53.9,75.4z"
	/>
<path class="st3" d="M53.2,81.5c-1-0.1-2-0.1-3-0.2c-5.8-0.6-11.4-2.9-16-6.5c-0.7-0.5-1.4-1.1-2-1.7s-1.3-1.2-1.9-1.8l-0.4-0.4
	l2.1-1.7c0.3,0.4,0.6,0.7,0.9,1s0.8,0.7,1.2,1.1c4.9,4.6,11.3,7.3,18,7.5c4.5,0.3,8.9-0.5,13.1-2.2c7.7-3.2,13.7-9.7,16.1-17.7
	c4.8-14.4-2.4-30-16.4-35.7c-10.5-4.3-21.6-2.3-30.3,4.9C31,31,28,34.5,25.8,38.6c-1.7,3.3-2.8,6.8-3.3,10.4c-0.1,0.5-0.2,1-0.4,1.4
	l-0.1-1c0.1-0.7,0.1-1.5,0.2-2.2c0.5-6.3,2.9-12.3,6.9-17.2c12-14.9,33.9-15.6,47.1-2.4c4.2,4.2,7.1,9.6,8.4,15.4c0.2,1,0.4,2,0.6,3
	l0.2,4.3c0,0.5-0.1,0.9-0.1,1.4c-0.2,4.2-1.3,8.3-3.2,12c-2.4,4.8-5.9,8.9-10.3,12c-3.2,2.3-6.8,3.9-10.6,4.8
	c-1.2,0.3-2.3,0.5-3.5,0.7L53.2,81.5L53.2,81.5z"/>
<path class="st3" d="M72.7,36.9c2.2,0,4,1.8,4,4s-1.8,4-4,4s-4-1.8-4-4S70.5,36.9,72.7,36.9z"/>
</svg>
